<svg xmlns="http://www.w3.org/2000/svg" xmlns:xlink="http://www.w3.org/1999/xlink" width="300" zoomAndPan="magnify" viewBox="0 0 224.87999 33.749998" height="45" preserveAspectRatio="xMidYMid meet" version="1.2"><defs><clipPath id="83b7b4dce6"><path d="M 10.550781 1.929688 L 214.539062 1.929688 L 214.539062 31.710938 L 10.550781 31.710938 Z M 10.550781 1.929688 "/></clipPath></defs><g id="767ddc48e4"><g clip-rule="nonzero" clip-path="url(#83b7b4dce6)"><path style=" stroke:none;fill-rule:nonzero;fill:#910ceb;fill-opacity:1;" d="M 40.148438 12.277344 L 87.292969 12.277344 L 93.375 8.753906 L 86.363281 4.695312 L 36.148438 4.695312 C 35.886719 5.574219 35.074219 6.210938 34.117188 6.210938 C 32.945312 6.210938 32 5.257812 32 4.085938 C 32 2.910156 32.949219 1.960938 34.117188 1.960938 C 35.074219 1.960938 35.886719 2.601562 36.148438 3.476562 L 86.675781 3.476562 L 94.582031 8.054688 L 104.109375 2.53125 L 169.484375 2.53125 L 169.484375 3.75 L 104.425781 3.75 L 95.789062 8.753906 L 106.34375 14.859375 L 112.328125 11.394531 L 210.359375 11.394531 C 210.621094 10.519531 211.433594 9.878906 212.390625 9.878906 C 213.5625 9.878906 214.507812 10.832031 214.507812 12.003906 C 214.507812 13.179688 213.558594 14.128906 212.390625 14.128906 C 211.433594 14.128906 210.621094 13.488281 210.359375 12.613281 L 112.640625 12.613281 L 107.550781 15.5625 L 120.371094 22.984375 L 128.742188 22.984375 L 139.863281 16.539062 L 182.441406 16.539062 L 182.441406 17.757812 L 140.1875 17.757812 L 131.167969 22.984375 L 157.226562 22.984375 C 157.488281 22.105469 158.296875 21.46875 159.257812 21.46875 C 160.429688 21.46875 161.375 22.421875 161.375 23.59375 C 161.375 24.769531 160.425781 25.71875 159.257812 25.71875 C 158.296875 25.71875 157.488281 25.078125 157.226562 24.203125 L 129.0625 24.203125 L 118.726562 30.191406 L 53.289062 30.191406 C 53.027344 31.066406 52.214844 31.707031 51.257812 31.707031 C 50.085938 31.707031 49.140625 30.75 49.140625 29.582031 C 49.140625 28.40625 50.089844 27.457031 51.257812 27.457031 C 52.214844 27.457031 53.027344 28.09375 53.289062 28.96875 L 118.402344 28.96875 L 126.640625 24.199219 L 120.054688 24.199219 L 106.339844 16.257812 L 97.257812 21.519531 L 14.6875 21.519531 C 14.425781 22.394531 13.613281 23.035156 12.65625 23.035156 C 11.484375 23.035156 10.539062 22.082031 10.539062 20.910156 C 10.539062 19.734375 11.488281 18.785156 12.65625 18.785156 C 13.613281 18.785156 14.425781 19.425781 14.6875 20.300781 L 96.945312 20.300781 L 105.132812 15.558594 L 94.582031 9.453125 L 87.605469 13.492188 L 40.148438 13.492188 Z M 40.148438 12.277344 "/></g></g></svg>